<?xml version="1.0" encoding="UTF-8" standalone="no"?>
<!-- Created with Inkscape (http://www.inkscape.org/) -->

<svg
   xmlns:dc="http://purl.org/dc/elements/1.1/"
   xmlns:cc="http://creativecommons.org/ns#"
   xmlns:rdf="http://www.w3.org/1999/02/22-rdf-syntax-ns#"
   xmlns:svg="http://www.w3.org/2000/svg"
   xmlns="http://www.w3.org/2000/svg"
   xmlns:sodipodi="http://sodipodi.sourceforge.net/DTD/sodipodi-0.dtd"
   xmlns:inkscape="http://www.inkscape.org/namespaces/inkscape"
   width="128.72287mm"
   height="262.34973mm"
   viewBox="0 0 128.72287 262.34973"
   version="1.1"
   id="svg2538"
   inkscape:version="0.92.3 (2405546, 2018-03-11)"
   sodipodi:docname="GREEN.svg">
  <defs
     id="defs2532" />
  <sodipodi:namedview
     id="base"
     pagecolor="#ffffff"
     bordercolor="#666666"
     borderopacity="1.0"
     inkscape:pageopacity="0.0"
     inkscape:pageshadow="2"
     inkscape:zoom="0.35"
     inkscape:cx="-225.558"
     inkscape:cy="411.19604"
     inkscape:document-units="mm"
     inkscape:current-layer="layer1"
     showgrid="false"
     inkscape:window-width="1920"
     inkscape:window-height="1017"
     inkscape:window-x="-8"
     inkscape:window-y="-8"
     inkscape:window-maximized="1" />
  <metadata
     id="metadata2535">
    <rdf:RDF>
      <cc:Work
         rdf:about="">
        <dc:format>image/svg+xml</dc:format>
        <dc:type
           rdf:resource="http://purl.org/dc/dcmitype/StillImage" />
        <dc:title />
      </cc:Work>
    </rdf:RDF>
  </metadata>
  <g
     inkscape:label="Layer 1"
     inkscape:groupmode="layer"
     id="layer1"
     transform="translate(-40.638564,-17.325135)">
    <path
       style="fill:#00a950;fill-opacity:1;stroke-width:2.47865129"
       d="M 95.738279,276.36408 C 61.315078,265.6059 42.779481,241.65984 43.120574,208.38704 43.277022,193.12205 48.081749,174.05921 60.342291,140.06002 71.882143,108.05913 70.041024,97.484114 45.436002,54.441295 38.320625,41.993952 39.073167,33.735289 48.007929,26.217176 c 9.155662,-7.70407 20.339618,-10.024088 40.515107,-8.404619 28.025604,2.249663 51.643324,18.291183 64.048414,43.502698 7.73218,15.714572 9.59599,26.543115 9.89062,41.855765 0.29464,15.31264 -5.97063,33.54099 -9.12474,46.43811 -3.1541,12.89711 -8.73497,25.96154 -8.73497,32.53834 0,13.07201 7.161,33.01508 17.32139,48.23941 10.1292,15.17769 9.93022,25.29583 -0.70636,35.93288 -4.49454,4.49454 -12.58112,9.39604 -17.97023,10.89223 -12.9416,3.59296 -34.5314,3.20765 -47.508411,-0.84782 z m 51.749461,-12.92146 c 16.26673,-9.50023 12.63002,-10.74787 -31.32956,-10.74787 -23.062372,0 -40.657315,0.96004 -39.905054,2.17724 1.757929,2.84435 17.991683,10.53943 27.451434,13.01252 11.57527,3.02619 35.07888,0.64172 43.78318,-4.44189 z m 9.50791,-19.47242 c 0,-0.70823 -2.80248,-5.72795 -6.22775,-11.15388 l -6.22775,-9.86539 H 99.955529 c -48.731896,0 -48.413941,-0.11429 -39.654457,14.2523 l 4.911523,8.05556 h 45.891575 c 25.24027,0 45.89148,-0.57989 45.89148,-1.28859 z m -17.3644,-30.31414 c -0.007,-1.02244 -1.17542,-6.04179 -2.59516,-11.15398 l -2.58139,-9.29497 H 95.177969 c -42.903981,0 -42.285684,-0.22015 -42.285684,15.07464 v 7.23322 h 43.376324 c 23.857071,0 43.370231,-0.83657 43.362641,-1.85891 z m -4.50644,-40.40691 c 0.52649,-5.52382 0.4581,-10.54308 -0.1527,-11.15388 -0.61081,-0.61081 -16.59715,-1.1106 -35.525081,-1.1106 H 65.03254 l -3.591461,8.59564 c -1.975364,4.72763 -3.591554,9.74688 -3.591554,11.15398 0,1.64776 13.580418,2.55825 38.158744,2.55825 H 134.1671 Z m 8.97963,-27.93202 c 1.63708,-4.52734 2.97654,-8.98891 2.97654,-9.91457 0,-0.92558 -16.15825,-1.68308 -35.90711,-1.68308 H 75.266661 l -3.75128,8.97804 c -2.063144,4.93785 -3.751188,9.39942 -3.751188,9.91457 0,0.51525 16.506835,0.93682 36.681767,0.93682 h 36.68185 z m 6.37164,-24.61055 c 0.82159,-3.06731 1.50977,-8.08657 1.52841,-11.15388 0.0375,-5.53723 -0.23139,-5.57704 -37.14595,-5.57704 H 77.678768 v 11.15398 11.15388 h 35.651362 c 34.87652,0 35.68387,-0.12085 37.14595,-5.57694 z m 0.10961,-33.461743 c -0.92276,-5.112283 -2.1542,-10.13154 -2.73728,-11.153978 -0.58269,-1.022438 -18.40219,-1.859012 -39.59806,-1.859012 -35.689673,0 -38.41402,0.32039 -36.85994,4.337632 0.922761,2.385782 2.297159,7.40504 3.053729,11.153978 l 1.37543,6.816257 h 38.221601 38.2216 l -1.67717,-9.294877 z m -8.46214,-23.411616 c 0,-1.629493 -2.99724,-6.091065 -6.66037,-9.914574 l -6.66036,-6.951903 H 92.086767 c -24.961386,0 -36.716049,0.869362 -36.716049,2.715634 0,1.493655 2.306715,5.955227 5.126054,9.914668 l 5.126148,7.198847 h 38.25027 c 28.0139,0 38.25036,-0.792544 38.25036,-2.962672 z M 115.97372,37.424834 C 110.44231,32.477898 91.486738,27.138157 79.487379,27.146776 c -11.537603,0.0082 -29.073995,6.708331 -29.073995,11.108261 0,0.701673 15.280921,1.275752 33.957509,1.275752 18.826577,0 32.908377,-0.938405 31.602827,-2.105955 z"
       id="path3094"
       inkscape:connector-curvature="0"
       sodipodi:nodetypes="ccccccczzsccccccscccsccsccsscccsscsccssccsscccssccssccccscccscccscccccccsccssccssccssc" />
  </g>
</svg>
