<?xml version="1.0" encoding="UTF-8" standalone="no"?>
<!-- Created with Inkscape (http://www.inkscape.org/) -->

<svg
   xmlns:dc="http://purl.org/dc/elements/1.1/"
   xmlns:cc="http://creativecommons.org/ns#"
   xmlns:rdf="http://www.w3.org/1999/02/22-rdf-syntax-ns#"
   xmlns:svg="http://www.w3.org/2000/svg"
   xmlns="http://www.w3.org/2000/svg"
   xmlns:sodipodi="http://sodipodi.sourceforge.net/DTD/sodipodi-0.dtd"
   xmlns:inkscape="http://www.inkscape.org/namespaces/inkscape"
   width="139.89499mm"
   height="280.15411mm"
   viewBox="0 0 139.89499 280.15411"
   version="1.1"
   id="svg4552"
   inkscape:version="0.92.3 (2405546, 2018-03-11)"
   sodipodi:docname="RED.svg">
  <defs
     id="defs4546" />
  <sodipodi:namedview
     id="base"
     pagecolor="#ffffff"
     bordercolor="#666666"
     borderopacity="1.0"
     inkscape:pageopacity="0.0"
     inkscape:pageshadow="2"
     inkscape:zoom="0.35"
     inkscape:cx="-13.063601"
     inkscape:cy="926.3622"
     inkscape:document-units="mm"
     inkscape:current-layer="layer1"
     showgrid="false"
     inkscape:window-width="1920"
     inkscape:window-height="1017"
     inkscape:window-x="-8"
     inkscape:window-y="-8"
     inkscape:window-maximized="1" />
  <metadata
     id="metadata4549">
    <rdf:RDF>
      <cc:Work
         rdf:about="">
        <dc:format>image/svg+xml</dc:format>
        <dc:type
           rdf:resource="http://purl.org/dc/dcmitype/StillImage" />
        <dc:title />
      </cc:Work>
    </rdf:RDF>
  </metadata>
  <g
     inkscape:label="Layer 1"
     inkscape:groupmode="layer"
     id="layer1"
     transform="translate(-35.052504,-8.4229332)">
    <path
       d="M 88.278465,286.67363 C 66.369849,281.30151 43.729969,258.65579 37.709391,236.09185 36.10292,230.07115 35.061076,195.53143 35.052689,148.01503 35.036779,58.554644 36.010705,52.214513 52.674787,33.283034 87.663757,-6.4665317 147.20294,2.7913893 169.73336,51.484691 c 4.98287,10.769134 5.21414,15.05878 5.21414,96.699929 0,81.64123 -0.23116,85.93088 -5.21414,96.70001 -14.9095,32.2228 -49.04613,49.736 -81.454895,41.789 z m 40.337875,-19.40176 c 11.81866,-6.0792 21.54033,-16.39592 26.38975,-28.00512 5.30164,-12.69178 5.73778,-168.442803 0.50631,-180.926056 C 146.70082,37.31334 127.5977,24.520209 104.86989,24.426056 84.469966,24.341827 67.272351,35.322661 56.47907,55.324914 c -5.08367,9.42105 -5.384573,13.595487 -6.158847,85.430926 -0.95884,88.96079 0.102012,96.81971 15.303336,113.35948 5.650369,6.14789 13.616266,12.64273 17.702072,14.43313 11.27574,4.94104 34.473839,4.28721 45.290439,-1.27658 z"
       id="path5130"
       inkscape:connector-curvature="0"
       style="fill:#ea1c2d" />
  </g>
</svg>
