<?xml version="1.0" encoding="UTF-8" standalone="no"?>
<!-- Created with Inkscape (http://www.inkscape.org/) -->

<svg
   xmlns:dc="http://purl.org/dc/elements/1.1/"
   xmlns:cc="http://creativecommons.org/ns#"
   xmlns:rdf="http://www.w3.org/1999/02/22-rdf-syntax-ns#"
   xmlns:svg="http://www.w3.org/2000/svg"
   xmlns="http://www.w3.org/2000/svg"
   xmlns:sodipodi="http://sodipodi.sourceforge.net/DTD/sodipodi-0.dtd"
   xmlns:inkscape="http://www.inkscape.org/namespaces/inkscape"
   version="1.1"
   id="svg2"
   width="54.747498"
   height="110.96215"
   viewBox="0 0 54.747498 110.96215"
   sodipodi:docname="PURPLE.svg"
   inkscape:version="0.92.3 (2405546, 2018-03-11)">
  <metadata
     id="metadata8">
    <rdf:RDF>
      <cc:Work
         rdf:about="">
        <dc:format>image/svg+xml</dc:format>
        <dc:type
           rdf:resource="http://purl.org/dc/dcmitype/StillImage" />
        <dc:title />
      </cc:Work>
    </rdf:RDF>
  </metadata>
  <defs
     id="defs6" />
  <sodipodi:namedview
     pagecolor="#ffffff"
     bordercolor="#666666"
     borderopacity="1"
     objecttolerance="10"
     gridtolerance="10"
     guidetolerance="10"
     inkscape:pageopacity="0"
     inkscape:pageshadow="2"
     inkscape:window-width="1920"
     inkscape:window-height="1017"
     id="namedview4"
     showgrid="false"
     inkscape:zoom="7.9941174"
     inkscape:cx="17.404829"
     inkscape:cy="51.953008"
     inkscape:window-x="-8"
     inkscape:window-y="-8"
     inkscape:window-maximized="1"
     inkscape:current-layer="svg2" />
  <path
     style="fill:#8051a4;fill-opacity:1;stroke:none;stroke-opacity:1"
     d="M 19.69911,110.05909 C 11.187831,107.66602 3.3624619,99.78626 0.9665029,91.19626 0.1137329,88.13891 -0.1441231,77.2291 0.0731389,53.398388 c 1.513263,-12.775882 -1.0939574,-26.95958 2.96217,-38.5 3.370968,-6.3441498 7.0356961,-9.8102838 13.3432471,-12.6201678 10.086,-4.493107 22.122244,-2.18500402 29.7394,5.554807 7.960899,8.0890888 9.01946,13.8193568 8.52833,51.4579098 -0.4197,32.163743 -0.57206,33.148443 -6.40714,41.408203 -5.69807,8.0658 -18.36626,12.22044 -28.540036,9.35995 z m 17.469286,-5.9107 4.21016,-2.25 -7.25,-0.29381 c -3.9875,-0.16159 -10.5125,-0.16159 -14.5,0 l -7.25,0.29381 4.5,2.24921 c 6.127982,3.06292 14.55942,3.06325 20.28984,7.9e-4 z M 49.298851,89.2293 4.8785559,89.36446 8.2489809,97.39839 H 45.827196 Z M 49.878556,76.39839 H 3.8785559 v 9 H 49.878556 Z m 0,-12 H 3.8785559 v 9 H 49.878556 Z m 0,-12.000002 H 3.8785559 v 9 H 49.878556 Z m 0,-13 H 3.8785559 v 9 H 49.878556 Z m 0,-12 H 3.8785559 v 9 H 49.878556 Z m 0,-3.059132 -2.89795,-8.940868 H 7.0742059 l -2.424626,8.54488 z M 41.751006,9.7399102 c -2.37769,-2.873217 -9.12302,-5.29659 -14.80673,-5.31956 -5.518727,-0.0223 -12.673732,2.595869 -15.107244,5.528071 -1.042804,1.2565018 0.96414,1.4499668 15.041524,1.4499668 15.01484,0 16.14097,-0.125579 14.87245,-1.6584778 z"
     id="path4520"
     inkscape:connector-curvature="0"
     sodipodi:nodetypes="csccsssccsccccssccccccccccccccccccccccccccccccccccccsssc" />
</svg>
